<svg xmlns="http://www.w3.org/2000/svg" xmlns:xlink="http://www.w3.org/1999/xlink" width="40" zoomAndPan="magnify" viewBox="0 0 30 30.000001" height="40" preserveAspectRatio="xMidYMid meet" version="1.0"><defs><clipPath id="371375adfe"><path d="M 1.363281 1 L 29.515625 1 L 29.515625 29.03125 L 1.363281 29.03125 Z M 1.363281 1 " clip-rule="nonzero"/></clipPath></defs><g clip-path="url(#371375adfe)"><path fill="#f4744d" d="M 28.257812 15.089844 L 29.582031 11.9375 C 29.664062 11.738281 29.679688 11.535156 29.625 11.324219 C 29.566406 11.117188 29.453125 10.949219 29.28125 10.820312 L 26.558594 8.753906 L 26.125 5.355469 C 26.101562 5.140625 26.011719 4.957031 25.859375 4.804688 C 25.707031 4.652344 25.523438 4.5625 25.308594 4.539062 L 21.910156 4.105469 L 19.84375 1.382812 C 19.714844 1.210938 19.546875 1.097656 19.339844 1.039062 C 19.128906 0.984375 18.925781 1 18.726562 1.082031 L 15.574219 2.40625 L 12.417969 1.082031 C 12.222656 1 12.015625 0.984375 11.808594 1.039062 C 11.601562 1.097656 11.433594 1.210938 11.300781 1.382812 L 9.238281 4.105469 L 5.839844 4.539062 C 5.625 4.5625 5.441406 4.652344 5.289062 4.804688 C 5.136719 4.957031 5.046875 5.140625 5.023438 5.355469 L 4.589844 8.753906 L 1.867188 10.820312 C 1.695312 10.949219 1.582031 11.117188 1.523438 11.324219 C 1.46875 11.535156 1.484375 11.738281 1.566406 11.9375 L 2.890625 15.089844 L 1.566406 18.246094 C 1.484375 18.441406 1.46875 18.648438 1.523438 18.855469 C 1.582031 19.0625 1.695312 19.230469 1.867188 19.363281 L 4.589844 21.425781 L 5.023438 24.824219 C 5.046875 25.039062 5.136719 25.222656 5.289062 25.375 C 5.441406 25.527344 5.625 25.617188 5.839844 25.640625 L 9.238281 26.074219 L 11.300781 28.796875 C 11.433594 28.96875 11.601562 29.082031 11.808594 29.140625 C 12.015625 29.195312 12.222656 29.179688 12.417969 29.097656 L 15.574219 27.773438 L 18.726562 29.097656 C 18.925781 29.179688 19.128906 29.195312 19.339844 29.140625 C 19.546875 29.082031 19.714844 28.96875 19.84375 28.796875 L 21.910156 26.074219 L 25.308594 25.640625 C 25.523438 25.617188 25.707031 25.527344 25.859375 25.375 C 26.011719 25.222656 26.101562 25.039062 26.125 24.824219 L 26.558594 21.425781 L 29.28125 19.363281 C 29.453125 19.230469 29.566406 19.0625 29.625 18.855469 C 29.679688 18.648438 29.664062 18.441406 29.582031 18.246094 Z M 21.957031 9.972656 L 14.636719 21.238281 C 14.542969 21.371094 14.425781 21.476562 14.285156 21.550781 C 14.140625 21.625 13.988281 21.660156 13.828125 21.660156 C 13.667969 21.660156 13.515625 21.625 13.371094 21.550781 C 13.230469 21.476562 13.113281 21.371094 13.019531 21.238281 L 9.152344 15.351562 C 9.015625 15.136719 8.976562 14.902344 9.03125 14.652344 C 9.085938 14.398438 9.21875 14.203125 9.433594 14.0625 C 9.648438 13.921875 9.882812 13.878906 10.132812 13.925781 C 10.386719 13.976562 10.585938 14.109375 10.730469 14.320312 L 13.808594 19.015625 L 20.378906 8.941406 C 20.527344 8.730469 20.722656 8.597656 20.976562 8.546875 C 21.226562 8.5 21.460938 8.542969 21.675781 8.683594 C 21.890625 8.824219 22.023438 9.019531 22.078125 9.269531 C 22.136719 9.523438 22.09375 9.757812 21.957031 9.972656 Z M 21.957031 9.972656 " fill-opacity="1" fill-rule="nonzero"/></g></svg>