<svg xmlns="http://www.w3.org/2000/svg" xmlns:xlink="http://www.w3.org/1999/xlink" width="40" zoomAndPan="magnify" viewBox="0 0 30 30.000001" height="40" preserveAspectRatio="xMidYMid meet" version="1.0"><defs><clipPath id="29676bbce0"><path d="M 2 15 L 28 15 L 28 29.03125 L 2 29.03125 Z M 2 15 " clip-rule="nonzero"/></clipPath><clipPath id="26af958a54"><path d="M 8 0.824219 L 22 0.824219 L 22 14 L 8 14 Z M 8 0.824219 " clip-rule="nonzero"/></clipPath></defs><g clip-path="url(#29676bbce0)"><path fill="#f4744d" d="M 27.675781 28.355469 C 27.628906 27.96875 27.605469 27.578125 27.605469 27.1875 C 27.601562 25.476562 28.054688 21.496094 25.222656 19.882812 C 24.320312 19.371094 23.425781 18.835938 22.523438 18.320312 L 21.335938 17.640625 C 21.226562 17.582031 21.121094 17.511719 21.019531 17.445312 C 21.171875 18.402344 21.222656 19.585938 20.90625 20.746094 C 21.554688 21.15625 21.972656 21.90625 21.921875 22.75 C 21.855469 23.847656 20.960938 24.742188 19.867188 24.808594 C 18.585938 24.890625 17.527344 23.871094 17.527344 22.609375 C 17.527344 21.382812 18.515625 20.398438 19.726562 20.398438 C 19.828125 20.398438 19.925781 20.410156 20.019531 20.421875 C 20.359375 19.109375 20.15625 17.722656 19.929688 16.808594 L 19.917969 16.804688 C 16.882812 15.03125 13.136719 15.03125 10.105469 16.804688 C 10.003906 17.171875 9.921875 17.636719 9.953125 18.164062 C 10.71875 18.332031 11.339844 18.945312 11.496094 19.742188 L 12.546875 24.996094 C 12.648438 25.496094 12.574219 26.015625 12.320312 26.453125 C 12.050781 26.914062 11.621094 27.238281 11.136719 27.378906 C 10.996094 27.613281 10.730469 27.757812 10.429688 27.726562 C 10.09375 27.691406 9.816406 27.414062 9.78125 27.074219 C 9.730469 26.625 10.082031 26.246094 10.515625 26.246094 C 10.703125 26.246094 10.867188 26.316406 10.996094 26.429688 C 11.242188 26.320312 11.457031 26.128906 11.570312 25.851562 C 11.65625 25.648438 11.671875 25.414062 11.625 25.195312 L 10.578125 19.929688 C 10.476562 19.425781 10.035156 19.0625 9.523438 19.0625 C 9.007812 19.0625 8.570312 19.425781 8.46875 19.929688 L 7.402344 25.210938 C 7.339844 25.527344 7.417969 25.855469 7.621094 26.105469 C 7.734375 26.242188 7.882812 26.347656 8.039062 26.417969 C 8.191406 26.289062 8.390625 26.214844 8.609375 26.242188 C 8.941406 26.289062 9.210938 26.558594 9.25 26.898438 C 9.296875 27.339844 8.953125 27.71875 8.519531 27.71875 C 8.253906 27.71875 8.027344 27.578125 7.890625 27.367188 C 7.503906 27.253906 7.152344 27.027344 6.886719 26.707031 C 6.503906 26.234375 6.351562 25.621094 6.472656 25.023438 L 7.527344 19.730469 C 7.679688 18.960938 8.265625 18.363281 9 18.167969 C 8.988281 17.902344 8.992188 17.652344 9.015625 17.421875 C 8.902344 17.5 8.785156 17.574219 8.664062 17.640625 L 7.476562 18.320312 C 6.574219 18.835938 5.679688 19.371094 4.777344 19.882812 C 1.945312 21.503906 2.402344 25.476562 2.394531 27.1875 C 2.394531 27.578125 2.371094 27.96875 2.324219 28.355469 C 2.28125 28.765625 2.605469 29.128906 3.019531 29.128906 L 26.980469 29.128906 C 27.398438 29.128906 27.726562 28.765625 27.675781 28.355469 Z M 27.675781 28.355469 " fill-opacity="1" fill-rule="evenodd"/></g><g clip-path="url(#26af958a54)"><path fill="#f4744d" d="M 21.335938 7.175781 C 21.335938 7.59375 21.292969 8.003906 21.214844 8.414062 C 21.132812 8.824219 21.011719 9.21875 20.851562 9.605469 C 20.695312 9.992188 20.5 10.355469 20.269531 10.703125 C 20.039062 11.050781 19.773438 11.371094 19.480469 11.667969 C 19.1875 11.960938 18.867188 12.222656 18.523438 12.457031 C 18.175781 12.6875 17.8125 12.882812 17.425781 13.042969 C 17.042969 13.203125 16.648438 13.324219 16.242188 13.40625 C 15.832031 13.484375 15.421875 13.527344 15.003906 13.527344 C 14.589844 13.527344 14.179688 13.484375 13.769531 13.40625 C 13.363281 13.324219 12.96875 13.203125 12.582031 13.042969 C 12.199219 12.882812 11.835938 12.6875 11.488281 12.457031 C 11.144531 12.222656 10.824219 11.960938 10.53125 11.667969 C 10.238281 11.371094 9.972656 11.050781 9.742188 10.703125 C 9.511719 10.355469 9.316406 9.992188 9.160156 9.605469 C 9 9.21875 8.878906 8.824219 8.796875 8.414062 C 8.71875 8.003906 8.675781 7.59375 8.675781 7.175781 C 8.675781 6.757812 8.71875 6.34375 8.796875 5.933594 C 8.878906 5.527344 9 5.128906 9.160156 4.742188 C 9.316406 4.359375 9.511719 3.992188 9.742188 3.644531 C 9.972656 3.300781 10.238281 2.976562 10.53125 2.683594 C 10.824219 2.386719 11.144531 2.125 11.488281 1.894531 C 11.835938 1.660156 12.199219 1.464844 12.582031 1.304688 C 12.96875 1.148438 13.363281 1.027344 13.769531 0.945312 C 14.179688 0.863281 14.589844 0.824219 15.003906 0.824219 C 15.421875 0.824219 15.832031 0.863281 16.242188 0.945312 C 16.648438 1.027344 17.042969 1.148438 17.425781 1.304688 C 17.8125 1.464844 18.175781 1.660156 18.523438 1.894531 C 18.867188 2.125 19.1875 2.386719 19.480469 2.683594 C 19.773438 2.976562 20.039062 3.300781 20.269531 3.644531 C 20.5 3.992188 20.695312 4.359375 20.851562 4.742188 C 21.011719 5.128906 21.132812 5.527344 21.214844 5.933594 C 21.292969 6.34375 21.335938 6.757812 21.335938 7.175781 Z M 21.335938 7.175781 " fill-opacity="1" fill-rule="nonzero"/></g></svg>